# xmcd
#
# Track frame offsets:
#	150
#	12705
#	30520
#	44200
#	57985
#	76920
#	88477
#	104370
#	119002
#	134292
#	145165
#	159287
#	168622
#	187330
#
# Disc length: 2662 seconds
#
# Revision: 1
# Processed by: cddbd v1.5.2PL0 Copyright (c) Steve Scherf et al.
# Submitted via: audiograbber 1.83.01
#
DISCID=d00a640e
DTITLE=Original Donauschwäbische Blaskapelle Reutlingen - Für Freunde
DYEAR=1900
DGENRE=Blasmusik
TTITLE0=Donauschwäbische Blaskapelle Reutlingen - Für Freunde
TTITLE1=Donauschwäbische Blaskapelle Reutlingen - Bei gutem Wein
TTITLE2=Donauschwäbische Blaskapelle Reutlingen - Ideen Polka
TTITLE3=Donauschwäbische Blaskapelle Reutlingen - Wir machen Musik für die ganz
TTITLE3=e Welt
TTITLE4=Donauschwäbische Blaskapelle Reutlingen - Rosen der Liebe
TTITLE5=Donauschwäbische Blaskapelle Reutlingen - Jessika-Polka
TTITLE6=Donauschwäbische Blaskapelle Reutlingen - Es ist am schönsten erst wenn
TTITLE6=man lacht
TTITLE7=Donauschwäbische Blaskapelle Reutlingen - Unsere Blasmusik
TTITLE8=Donauschwäbische Blaskapelle Reutlingen - Der Lindenbaum
TTITLE9=Donauschwäbische Blaskapelle Reutlingen - Gruss aus dem Böhmerwald
TTITLE10=Donauschwäbische Blaskapelle Reutlingen - Mein Name ist Baum
TTITLE11=Donauschwäbische Blaskapelle Reutlingen - Ida -Polka
TTITLE12=Donauschwäbische Blaskapelle Reutlingen - Konzert-Marsch
TTITLE13=Donauschwäbische Blaskapelle Reutlingen - Ade, ihr Lieden Freunde
EXTD=
EXTT0=
EXTT1=
EXTT2=
EXTT3=
EXTT4=
EXTT5=
EXTT6=
EXTT7=
EXTT8=
EXTT9=
EXTT10=
EXTT11=
EXTT12=
EXTT13=
PLAYORDER=
